<svg width="100" height="100" viewBox="0 0 238 64" fill="none" xmlns="http://www.w3.org/2000/svg">
<path d="M96.8494 47.7273V26.7273H100.389V29.2528H100.598C100.784 28.8816 101.045 28.4872 101.384 28.0696C101.722 27.6454 102.179 27.2841 102.756 26.9858C103.332 26.6809 104.068 26.5284 104.963 26.5284C106.143 26.5284 107.207 26.83 108.155 27.4332C109.109 28.0298 109.865 28.9148 110.422 30.0881C110.985 31.2547 111.267 32.6866 111.267 34.3835C111.267 36.0606 110.992 37.4858 110.442 38.6591C109.892 39.8324 109.143 40.7273 108.195 41.3438C107.247 41.9602 106.173 42.2685 104.973 42.2685C104.098 42.2685 103.372 42.1226 102.795 41.831C102.219 41.5393 101.755 41.188 101.403 40.777C101.059 40.3594 100.79 39.965 100.598 39.5938H100.449V47.7273H96.8494ZM100.379 34.3636C100.379 35.3513 100.518 36.2164 100.797 36.9588C101.082 37.7012 101.49 38.2812 102.02 38.6989C102.557 39.1098 103.206 39.3153 103.969 39.3153C104.764 39.3153 105.43 39.1032 105.967 38.679C106.504 38.2481 106.909 37.6615 107.18 36.919C107.459 36.17 107.598 35.3182 107.598 34.3636C107.598 33.4157 107.462 32.5739 107.19 31.8381C106.919 31.1023 106.514 30.5256 105.977 30.108C105.44 29.6903 104.771 29.4815 103.969 29.4815C103.2 29.4815 102.547 29.6837 102.01 30.0881C101.473 30.4924 101.065 31.0592 100.787 31.7884C100.515 32.5175 100.379 33.3759 100.379 34.3636ZM124.084 35.5767V26.7273H127.683V42H124.193V39.2855H124.034C123.689 40.1406 123.123 40.84 122.334 41.3835C121.552 41.9271 120.587 42.1989 119.44 42.1989C118.439 42.1989 117.554 41.9768 116.786 41.5327C116.023 41.0819 115.427 40.429 114.996 39.5739C114.565 38.7121 114.349 37.6714 114.349 36.4517V26.7273H117.949V35.8949C117.949 36.8627 118.214 37.6316 118.744 38.2017C119.275 38.7718 119.971 39.0568 120.832 39.0568C121.363 39.0568 121.876 38.9276 122.374 38.669C122.871 38.4105 123.278 38.026 123.597 37.5156C123.921 36.9986 124.084 36.3523 124.084 35.5767ZM134.984 21.6364V42H131.385V21.6364H134.984ZM150.756 30.7642L147.475 31.1222C147.382 30.7907 147.22 30.4792 146.988 30.1875C146.763 29.8958 146.458 29.6605 146.073 29.4815C145.689 29.3026 145.218 29.2131 144.661 29.2131C143.912 29.2131 143.282 29.3755 142.772 29.7003C142.268 30.0251 142.02 30.446 142.026 30.9631C142.02 31.4072 142.182 31.7685 142.513 32.0469C142.852 32.3253 143.408 32.554 144.184 32.733L146.789 33.2898C148.234 33.6013 149.308 34.0952 150.011 34.7713C150.72 35.4474 151.078 36.3324 151.085 37.4261C151.078 38.3873 150.796 39.2358 150.239 39.9716C149.689 40.7008 148.924 41.2708 147.942 41.6818C146.961 42.0928 145.835 42.2983 144.562 42.2983C142.692 42.2983 141.188 41.9072 140.048 41.125C138.907 40.3362 138.228 39.2391 138.009 37.8338L141.519 37.4957C141.678 38.1851 142.016 38.7055 142.533 39.0568C143.05 39.4081 143.723 39.5838 144.552 39.5838C145.407 39.5838 146.093 39.4081 146.61 39.0568C147.134 38.7055 147.396 38.2713 147.396 37.7543C147.396 37.3168 147.227 36.9555 146.888 36.6705C146.557 36.3854 146.04 36.1667 145.337 36.0142L142.732 35.4673C141.267 35.1624 140.183 34.6487 139.481 33.9261C138.778 33.197 138.43 32.2756 138.437 31.1619C138.43 30.2206 138.685 29.4053 139.202 28.7159C139.726 28.0199 140.452 27.483 141.38 27.1051C142.315 26.7206 143.392 26.5284 144.612 26.5284C146.401 26.5284 147.81 26.9096 148.837 27.6719C149.871 28.4342 150.511 29.465 150.756 30.7642ZM160.814 42.2983C159.283 42.2983 157.96 41.9801 156.847 41.3438C155.74 40.7008 154.888 39.7926 154.291 38.6193C153.695 37.4394 153.396 36.0507 153.396 34.4531C153.396 32.8821 153.695 31.5033 154.291 30.3168C154.894 29.1236 155.736 28.1955 156.817 27.5327C157.897 26.8632 159.167 26.5284 160.625 26.5284C161.566 26.5284 162.455 26.6809 163.29 26.9858C164.132 27.2841 164.874 27.7481 165.517 28.3778C166.167 29.0076 166.677 29.8097 167.048 30.7841C167.42 31.7519 167.605 32.9053 167.605 34.2443V35.348H155.087V32.9219H164.155C164.148 32.2325 163.999 31.6193 163.707 31.0824C163.416 30.5388 163.008 30.1113 162.484 29.7997C161.967 29.4882 161.364 29.3324 160.675 29.3324C159.939 29.3324 159.293 29.5114 158.736 29.8693C158.179 30.2206 157.745 30.6847 157.433 31.2614C157.128 31.8314 156.973 32.4579 156.966 33.1406V35.2585C156.966 36.1468 157.128 36.9091 157.453 37.5455C157.778 38.1752 158.232 38.6591 158.815 38.9972C159.399 39.3286 160.081 39.4943 160.864 39.4943C161.387 39.4943 161.861 39.4214 162.286 39.2756C162.71 39.1231 163.078 38.901 163.389 38.6094C163.701 38.3177 163.936 37.9564 164.095 37.5256L167.456 37.9034C167.244 38.7917 166.839 39.5672 166.243 40.2301C165.653 40.8864 164.897 41.3968 163.976 41.7614C163.054 42.1193 162 42.2983 160.814 42.2983ZM177.596 47.7273V26.7273H181.135V29.2528H181.344C181.53 28.8816 181.792 28.4872 182.13 28.0696C182.468 27.6454 182.925 27.2841 183.502 26.9858C184.078 26.6809 184.814 26.5284 185.709 26.5284C186.889 26.5284 187.953 26.83 188.901 27.4332C189.855 28.0298 190.611 28.9148 191.168 30.0881C191.731 31.2547 192.013 32.6866 192.013 34.3835C192.013 36.0606 191.738 37.4858 191.188 38.6591C190.638 39.8324 189.889 40.7273 188.941 41.3438C187.993 41.9602 186.919 42.2685 185.719 42.2685C184.844 42.2685 184.118 42.1226 183.542 41.831C182.965 41.5393 182.501 41.188 182.15 40.777C181.805 40.3594 181.536 39.965 181.344 39.5938H181.195V47.7273H177.596ZM181.125 34.3636C181.125 35.3513 181.265 36.2164 181.543 36.9588C181.828 37.7012 182.236 38.2812 182.766 38.6989C183.303 39.1098 183.953 39.3153 184.715 39.3153C185.51 39.3153 186.176 39.1032 186.713 38.679C187.25 38.2481 187.655 37.6615 187.926 36.919C188.205 36.17 188.344 35.3182 188.344 34.3636C188.344 33.4157 188.208 32.5739 187.936 31.8381C187.665 31.1023 187.26 30.5256 186.723 30.108C186.186 29.6903 185.517 29.4815 184.715 29.4815C183.946 29.4815 183.293 29.6837 182.756 30.0881C182.219 30.4924 181.811 31.0592 181.533 31.7884C181.261 32.5175 181.125 33.3759 181.125 34.3636ZM198.695 21.6364V42H195.096V21.6364H198.695ZM212.131 35.5767V26.7273H215.73V42H212.24V39.2855H212.081C211.736 40.1406 211.17 40.84 210.381 41.3835C209.598 41.9271 208.634 42.1989 207.487 42.1989C206.486 42.1989 205.601 41.9768 204.832 41.5327C204.07 41.0819 203.473 40.429 203.043 39.5739C202.612 38.7121 202.396 37.6714 202.396 36.4517V26.7273H205.996V35.8949C205.996 36.8627 206.261 37.6316 206.791 38.2017C207.321 38.7718 208.018 39.0568 208.879 39.0568C209.41 39.0568 209.923 38.9276 210.42 38.669C210.918 38.4105 211.325 38.026 211.643 37.5156C211.968 36.9986 212.131 36.3523 212.131 35.5767ZM231.502 30.7642L228.221 31.1222C228.128 30.7907 227.966 30.4792 227.734 30.1875C227.509 29.8958 227.204 29.6605 226.819 29.4815C226.435 29.3026 225.964 29.2131 225.407 29.2131C224.658 29.2131 224.029 29.3755 223.518 29.7003C223.014 30.0251 222.766 30.446 222.772 30.9631C222.766 31.4072 222.928 31.7685 223.26 32.0469C223.598 32.3253 224.154 32.554 224.93 32.733L227.535 33.2898C228.98 33.6013 230.054 34.0952 230.757 34.7713C231.466 35.4474 231.824 36.3324 231.831 37.4261C231.824 38.3873 231.542 39.2358 230.985 39.9716C230.435 40.7008 229.67 41.2708 228.689 41.6818C227.708 42.0928 226.581 42.2983 225.308 42.2983C223.439 42.2983 221.934 41.9072 220.794 41.125C219.654 40.3362 218.974 39.2391 218.755 37.8338L222.265 37.4957C222.424 38.1851 222.762 38.7055 223.279 39.0568C223.797 39.4081 224.469 39.5838 225.298 39.5838C226.153 39.5838 226.839 39.4081 227.356 39.0568C227.88 38.7055 228.142 38.2713 228.142 37.7543C228.142 37.3168 227.973 36.9555 227.635 36.6705C227.303 36.3854 226.786 36.1667 226.083 36.0142L223.478 35.4673C222.013 35.1624 220.93 34.6487 220.227 33.9261C219.524 33.197 219.176 32.2756 219.183 31.1619C219.176 30.2206 219.431 29.4053 219.949 28.7159C220.472 28.0199 221.198 27.483 222.126 27.1051C223.061 26.7206 224.138 26.5284 225.358 26.5284C227.147 26.5284 228.556 26.9096 229.583 27.6719C230.618 28.4342 231.257 29.465 231.502 30.7642Z" fill="white"/>
<path d="M6 31.9362H17.2725C17.2805 31.9362 17.2878 31.9314 17.2909 31.9241L20.6461 24.1017C20.6538 24.0836 20.6802 24.0864 20.6841 24.1056L24.0372 40.8579C24.0415 40.8794 24.0723 40.8793 24.0765 40.8577L30.8032 6.13107C30.8076 6.10852 30.8403 6.10991 30.8427 6.13275L36.4566 58.8604C36.459 58.8834 36.4921 58.8845 36.4961 58.8618L42.1005 27.5028C42.1041 27.4824 42.1326 27.4804 42.1391 27.5L45.4827 37.5227C45.4886 37.5404 45.5134 37.5411 45.5203 37.5238L47.7521 31.9487C47.7551 31.9411 47.7625 31.9362 47.7707 31.9362H85" stroke="white" stroke-width="2"/>
<path d="M73.7322 17.7721C73.5001 18.0169 73.3159 18.3075 73.1903 18.6273C73.0647 18.9471 73 19.2899 73 19.636C73 19.9822 73.0647 20.325 73.1903 20.6448C73.3159 20.9646 73.5001 21.2552 73.7322 21.5L78 26L82.2678 21.5C82.7366 21.0057 83 20.3352 83 19.636C83 18.9369 82.7366 18.2664 82.2678 17.7721C81.7989 17.2777 81.163 17 80.5 17C79.837 17 79.2011 17.2777 78.7322 17.7721L78 18.5441L77.2678 17.7721C77.0356 17.5273 76.76 17.3331 76.4567 17.2007C76.1534 17.0682 75.8283 17 75.5 17C75.1717 17 74.8466 17.0682 74.5433 17.2007C74.24 17.3331 73.9644 17.5273 73.7322 17.7721V17.7721Z" stroke="white" stroke-width="2" stroke-linecap="round" stroke-linejoin="round"/>
</svg>
